<?xml version="1.0" standalone="no"?>
<!DOCTYPE svg PUBLIC "-//W3C//DTD SVG 20010904//EN"
 "http://www.w3.org/TR/2001/REC-SVG-20010904/DTD/svg10.dtd">
<svg version="1.0" xmlns="http://www.w3.org/2000/svg"
 width="512.000000pt" height="512.000000pt" viewBox="0 0 512.000000 512.000000"
 preserveAspectRatio="xMidYMid meet">
<metadata>
Created by potrace 1.11, written by Peter Selinger 2001-2013
</metadata>
<g transform="translate(0.000000,512.000000) scale(0.100000,-0.100000)"
fill="#000000" stroke="none">
<path d="M1602 4333 l-942 -545 0 -1098 0 -1098 47 -30 c27 -16 75 -44 108
-62 33 -19 168 -98 300 -175 497 -294 896 -526 1060 -617 55 -31 161 -90 237
-132 75 -42 141 -76 147 -76 12 0 821 460 1160 659 121 72 320 187 443 257
123 69 240 138 261 152 l37 25 0 1097 0 1098 -943 546 c-519 300 -950 546
-958 546 -8 -1 -438 -246 -957 -547z m1269 -563 c161 -278 476 -822 701 -1210
l408 -705 -197 -197 c-122 -122 -201 -194 -207 -189 -6 5 -186 129 -401 276
-214 147 -397 273 -405 281 -12 12 -11 14 12 14 46 0 443 22 446 25 5 4 -665
1139 -674 1142 -9 3 -667 -1137 -660 -1144 2 -2 109 -7 239 -10 l236 -6 -417
-299 -417 -298 -192 197 c-106 109 -193 203 -193 208 0 6 26 55 58 110 32 55
325 559 652 1120 326 561 617 1062 647 1113 31 52 59 90 63 85 5 -4 140 -235
301 -513z"/>
</g>
</svg>
